<svg xmlns="http://www.w3.org/2000/svg" xmlns:xlink="http://www.w3.org/1999/xlink" version="1.2" viewBox="0 0 400 400" height="400pt" width="400pt"><defs><symbol id="a" overflow="visible"><path d="M124.734-22.36c1.282 0 2.52-.078 3.72-.234 1.206-.156 2.53-.472 3.968-.953v21.86c-3.2 1.769-6.445 3.05-9.734 3.843-3.282.801-6.446 1.203-9.485 1.203-7.531 0-13.344-1.523-17.437-4.562C91.68-4.243 88.758-8.57 87-14.188l-20.422-64.89h-.719L37.734 0H1.204l49.75-114.89-9.86-23.547c-1.594-3.688-3.715-6.051-6.36-7.094-2.648-1.04-5.812-1.563-9.5-1.563-3.843 0-7.773.563-11.78 1.688v-25.485a54.852 54.852 0 0111.171-2.156c3.77-.32 7.336-.484 10.703-.484 5.613 0 10.422.605 14.422 1.812 4.008 1.2 7.535 3.121 10.578 5.766 3.04 2.648 5.766 6.055 8.172 10.219 2.406 4.156 4.727 9.28 6.969 15.375l42.547 112c.957 2.562 1.957 4.203 3 4.922 1.039.718 2.28 1.078 3.718 1.078zm0 0"/></symbol><symbol id="b" overflow="visible"><path d="M46.39-37.016V0h37.735v-37.016zM7.688-116.328h35.329c0-4.32.476-8.363 1.437-12.125.969-3.77 2.453-7.055 4.453-9.86 2.008-2.812 4.57-5.054 7.688-6.734 3.125-1.687 6.851-2.531 11.187-2.531 6.406 0 11.41 1.766 15.016 5.297 3.601 3.523 5.406 8.969 5.406 16.344.164 4.324-.594 7.93-2.281 10.812-1.68 2.887-3.883 5.531-6.61 7.938-2.718 2.398-5.683 4.796-8.89 7.203-3.211 2.406-6.258 5.25-9.14 8.53-2.876 3.282-5.4 7.25-7.563 11.907-2.168 4.649-3.492 10.414-3.969 17.297v10.813h32.453v-9.126c.633-4.812 2.192-8.816 4.672-12.015a47.926 47.926 0 018.531-8.531 221.136 221.136 0 0110.219-7.454c3.602-2.488 6.89-5.492 9.86-9.015 2.968-3.52 5.453-7.766 7.453-12.734 2-4.97 3-11.301 3-19 0-4.645-1-9.649-3-15.016-2-5.363-5.329-10.367-9.985-15.016-4.648-4.644-10.777-8.531-18.39-11.656-7.606-3.125-17.094-4.688-28.47-4.688-8.812 0-16.788 1.485-23.921 4.454-7.125 2.96-13.215 7.086-18.266 12.375-5.043 5.28-8.965 11.527-11.765 18.734-2.805 7.21-4.29 15.14-4.454 23.797zm0 0"/></symbol></defs><path fill="#632b8f" d="M0 0h400v400H0z"/><g fill="#fff"><use height="100%" width="100%" y="287.305" x="68.945" xlink:href="#a"/><use height="100%" width="100%" y="287.305" x="201.374" xlink:href="#b"/></g></svg>