<svg xmlns="http://www.w3.org/2000/svg" viewBox="0 0 170 50"><path d="M67.6 33.3c-2.2 2.8-5.9 4.7-9.8 4.7-7.5 0-13-5.5-13-13 0-7.3 5.4-13 12.7-13 3.6 0 7 1.4 9.2 3.9l-1.5 1.5c-1.8-2-4.5-3.3-7.7-3.3-6 0-10.5 4.8-10.5 10.9 0 6.1 4.4 10.9 10.7 10.9 3.5 0 6.5-1.7 8.3-4l1.6 1.4zM86.9 12c7.2 0 12.6 5.6 12.6 13s-5.4 13-12.6 13c-7.1 0-12.6-5.6-12.6-13s5.4-13 12.6-13zm0 23.9C93 35.9 97.3 31 97.3 25S93 14.1 86.9 14.1c-6.1 0-10.4 4.9-10.4 10.9s4.3 10.9 10.4 10.9zm37.7-.6c-2.1 1.5-4.7 2.4-8.7 2.4h-7.2V12.4h7.2c4 0 6.6.9 8.7 2.4 3.1 2.3 5 6.1 5 10.3 0 4.1-1.9 7.8-5 10.2zm-1.1-18.7c-1.8-1.4-4.2-2.1-7.7-2.1h-4.9v21.2h4.9c3.5 0 5.9-.7 7.7-2.1 2.5-1.9 4-5.1 4-8.4-.1-3.6-1.6-6.7-4-8.6zm24-4.2l10.9 25.3h-2.2L153 30h-12.3l-3.3 7.6h-2.2l10.9-25.3h1.4zm-6 15.6H152l-5.2-12.2-5.3 12.2z" fill="#1f2d3d"/><path fill="#8492a6" d="M11.6 12h26v26h-26z"/></svg>